<svg xmlns="http://www.w3.org/2000/svg" viewBox="0 0 128 128">
  <path fill="#e85c5c" d="M50.4 78.5a75.1 75.1 0 0 0-28-4.6c-5.2 0-10.2.6-15 1.7-.4 0-.8.1-1.2.1-.4.1-.8.2-1.2.3-.4.1-.8.3-1.2.5-.4.2-.7.4-1.1.7-.4.3-.7.5-1 .8-.3.3-.6.6-.9 1-.3.3-.5.7-.7 1-.2.4-.4.8-.6 1.2-.2.4-.3.8-.4 1.2-.1.4-.2.8-.2 1.2 0 .4-.1.8-.1 1.2s0 .8.1 1.2c.1.4.1.8.2 1.2.1.4.2.8.4 1.2.2.4.4.8.6 1.2.2.4.4.7.7 1 .3.3.6.6.9 1 .3.3.6.5 1 .8.3.3.7.5 1.1.7.4.2.7.3 1.2.5.4.1.8.2 1.2.3.4 0 .8.1 1.2.1 4.8 1.1 9.8 1.7 15 1.7 10.2 0 19.9-1.6 28-4.6 8.9-3.2 16.3-7.8 21.4-13.3 6-6.5 9.3-14.2 9.3-22.1s-3.2-15.6-9.3-22.1C73.8 49.3 66.3 44.7 57.4 41.5c-8.1-3-17.8-4.6-28-4.6-5.2 0-10.2.6-15 1.7-.4 0-.8.1-1.2.1-.4.1-.8.2-1.2.3-.4.1-.8.3-1.2.5-.4.2-.7.4-1.1.7-.4.3-.7.5-1 .8-.3.3-.6.6-.9 1-.3.3-.5.7-.7 1-.2.4-.4.8-.6 1.2-.2.4-.3.8-.4 1.2-.1.4-.2.8-.2 1.2 0 .4-.1.8-.1 1.2s0 .8.1 1.2c.1.4.1.8.2 1.2.1.4.2.8.4 1.2.2.4.4.8.6 1.2.2.4.4.7.7 1 .3.3.6.6.9 1 .3.3.6.5 1 .8.3.3.7.5 1.1.7.4.2.7.3 1.2.5.4.1.8.2 1.2.3.4 0 .8.1 1.2.1 4.8 1.1 9.8 1.7 15 1.7 10.2 0 19.9-1.6 28-4.6 8.9-3.2 16.3-7.8 21.4-13.3 6-6.5 9.3-14.2 9.3-22.1s-3.2-15.6-9.3-22.1C73.8 2.3 66.3-2.3 57.4-5.5c-8.1-3-17.8-4.6-28-4.6-5.2 0-10.2.6-15 1.7-.4 0-.8.1-1.2.1-.4.1-.8.2-1.2.3-.4.1-.8.3-1.2.5-.4.2-.7.4-1.1.7-.4.3-.7.5-1 .8-.3.3-.6.6-.9 1-.3.3-.5.7-.7 1-.2.4-.4.8-.6 1.2-.2.4-.3.8-.4 1.2-.1.4-.2.8-.2 1.2 0 .4-.1.8-.1 1.2s0 .8.1 1.2c.1.4.1.8.2 1.2.1.4.2.8.4 1.2.2.4.4.8.6 1.2.2.4.4.7.7 1 .3.3.6.6.9 1 .3.3.6.5 1 .8.3.3.7.5 1.1.7.4.2.7.3 1.2.5.4.1.8.2 1.2.3.4 0 .8.1 1.2.1 4.8 1.1 9.8 1.7 15 1.7 10.2 0 19.9-1.6 28-4.6"/>
</svg>
