<svg xmlns="http://www.w3.org/2000/svg" viewBox="0 0 400 60" fill="currentColor">
  <defs>
    <filter id="shadow" x="-50%" y="-50%" width="200%" height="200%">
      <feDropShadow dx="2" dy="2" stdDeviation="1" flood-opacity="0.3"/>
    </filter>
  </defs>

  <g filter="url(#shadow)">
    <!-- C -->
    <rect x="2" y="0" width="38" height="10"/>
    <rect x="2" y="10" width="10" height="10"/>
    <rect x="2" y="20" width="10" height="10"/>
    <rect x="2" y="30" width="10" height="10"/>
    <rect x="2" y="40" width="38" height="10"/>

    <!-- H -->
    <rect x="42" y="0" width="10" height="50"/>
    <rect x="52" y="20" width="18" height="10"/>
    <rect x="70" y="0" width="10" height="50"/>

    <!-- 4 -->
    <rect x="82" y="0" width="10" height="30"/>
    <rect x="82" y="20" width="28" height="10"/>
    <rect x="100" y="0" width="10" height="50"/>

    <!-- 7 -->
    <rect x="112" y="0" width="38" height="10"/>
    <rect x="138" y="10" width="10" height="10"/>
    <rect x="130" y="20" width="10" height="10"/>
    <rect x="122" y="30" width="10" height="10"/>
    <rect x="122" y="40" width="10" height="10"/>
  </g>
</svg>